<svg xmlns="http://www.w3.org/2000/svg" viewBox="0 0 1600 900"><defs><linearGradient id="bg" x2="1" y2="1"><stop stop-color="#16110d"/><stop offset=".55" stop-color="#3a2c21"/><stop offset="1" stop-color="#0d0b09"/></linearGradient><linearGradient id="floor" x2="0" y2="1"><stop stop-color="#66503d"/><stop offset="1" stop-color="#211813"/></linearGradient><pattern id="slat" width="22" height="22" patternUnits="userSpaceOnUse"><rect width="12" height="22" fill="#5c3b28"/><rect x="12" width="5" height="22" fill="#1b120e"/><rect x="17" width="5" height="22" fill="#3d281e"/></pattern><filter id="glow"><feGaussianBlur stdDeviation="7" result="b"/><feMerge><feMergeNode in="b"/><feMergeNode in="SourceGraphic"/></feMerge></filter></defs><rect width="1600" height="900" fill="url(#bg)"/><polygon points="0,0 1600,0 1600,190 0,220" fill="#211a15"/><polygon points="0,590 1600,510 1600,900 0,900" fill="url(#floor)"/><rect x="0" y="160" width="520" height="520" fill="url(#slat)"/><rect x="540" y="145" width="410" height="525" rx="4" fill="#332820"/><rect x="600" y="185" width="115" height="460" fill="#463629"/><rect x="730" y="185" width="115" height="460" fill="#2e241e"/><rect x="980" y="130" width="360" height="555" fill="#c7b79d" opacity=".4"/><path d="M1030 150l120 180 80-120 90 230" fill="none" stroke="#d8c6aa" stroke-width="8" opacity=".45"/><rect x="150" y="420" width="430" height="200" rx="28" fill="#76695d"/><rect x="110" y="530" width="510" height="150" rx="30" fill="#b4a89b"/><rect x="210" y="455" width="130" height="60" rx="15" fill="#d7cbbd"/><rect x="360" y="455" width="130" height="60" rx="15" fill="#c5b7a6"/><rect x="90" y="510" width="90" height="110" rx="8" fill="#3c2a20"/><circle cx="135" cy="480" r="38" fill="#e4bd76" opacity=".25" filter="url(#glow)"/><rect x="1030" y="510" width="230" height="95" rx="8" fill="#3a2a20"/><path d="M0 155h520M0 680h520M540 145h410M980 130h360" stroke="#d6ae68" stroke-width="4" opacity=".55" filter="url(#glow)"/><rect x="1260" y="140" width="300" height="540" fill="#0b1014" opacity=".75"/><circle cx="1420" cy="300" r="120" fill="#27455b" opacity=".25"/></svg>