<svg xmlns="http://www.w3.org/2000/svg" viewBox="0 0 1600 1000" role="img" aria-label="Warm mineral interior wall system"><defs>
<linearGradient id="wall" x1="0" y1="0" x2="1" y2="1"><stop stop-color="#efe6dc"/><stop offset=".45" stop-color="#b7a18c"/><stop offset="1" stop-color="#8e7460"/></linearGradient>
<linearGradient id="floor" x1="0" y1="0" x2="0" y2="1"><stop stop-color="#806b5c"/><stop offset="1" stop-color="#4e3e34"/></linearGradient>
<linearGradient id="stone" x1="0" y1="0" x2="1" y2="1"><stop stop-color="#f3ece3"/><stop offset=".58" stop-color="#d6c4b2"/><stop offset="1" stop-color="#aa8e76"/></linearGradient>
<linearGradient id="glass" x1="0" y1="0" x2="1" y2="1"><stop stop-color="#f5fbff" stop-opacity=".35"/><stop offset="1" stop-color="#9fb0b3" stop-opacity=".15"/></linearGradient>
<radialGradient id="glow"><stop stop-color="#fff8e9" stop-opacity=".95"/><stop offset="1" stop-color="#fff8e9" stop-opacity="0"/></radialGradient>
<pattern id="vein" width="310" height="220" patternUnits="userSpaceOnUse"><path d="M-30 170C80 90 180 230 350 45" fill="none" stroke="#735b49" stroke-opacity=".16" stroke-width="5"/><path d="M20 -30c80 105 190 50 250 260" fill="none" stroke="#fff" stroke-opacity=".2" stroke-width="3"/></pattern>
<filter id="shadow" x="-30%" y="-30%" width="160%" height="170%"><feDropShadow dx="0" dy="22" stdDeviation="20" flood-color="#2b211b" flood-opacity=".27"/></filter>
<filter id="soft"><feGaussianBlur stdDeviation="20"/></filter>
</defs>
<rect width="1600" height="1000" fill="url(#wall)"/><rect y="650" width="1600" height="350" fill="url(#floor)"/><rect width="1600" height="1000" fill="url(#vein)" opacity=".32"/>
<ellipse cx="760" cy="100" rx="670" ry="330" fill="url(#glow)" filter="url(#soft)"/>
<g opacity=".23" stroke="#5a4638"><path d="M0 650h1600"/><path d="M320 0v650M640 0v650M960 0v650M1280 0v650"/></g><g filter="url(#shadow)"><rect x="160" y="110" width="1120" height="520" rx="12" fill="#b6a08c"/><rect x="230" y="220" width="570" height="295" fill="#766353"/><rect x="285" y="285" width="460" height="160" fill="#161616"/><path d="M315 425q45-90 90 0t90 0 90 0 90 0" fill="none" stroke="#c98246" stroke-width="22"/><rect x="870" y="190" width="320" height="390" fill="url(#glass)"/></g><path d="M0 720h1600" stroke="#d7c6b5"/><g fill="#d5c4b3" filter="url(#shadow)"><rect x="500" y="700" width="700" height="150" rx="24"/><rect x="390" y="760" width="330" height="120" rx="24"/></g><g fill="#332a23"><circle cx="1330" cy="620" r="78"/><path d="M1330 620V340M1330 470l-100-110M1330 520l115-130" stroke="#332a23" stroke-width="16"/></g></svg>